<svg id="wave" style="transform:rotate(180deg); transition: 0.3s" viewBox="0 0 1440 230" version="1.1" xmlns="http://www.w3.org/2000/svg"><defs><linearGradient id="sw-gradient-0" x1="0" x2="0" y1="1" y2="0"><stop stop-color="rgba(130, 55, 216, 1)" offset="0%"></stop><stop stop-color="rgba(218, 61, 144, 1)" offset="100%"></stop></linearGradient></defs><path style="transform:translate(0, 0px); opacity:1" fill="url(#sw-gradient-0)" d="M0,46L120,65.2C240,84,480,123,720,115C960,107,1200,54,1440,53.7C1680,54,1920,107,2160,107.3C2400,107,2640,54,2880,61.3C3120,69,3360,138,3600,161C3840,184,4080,161,4320,126.5C4560,92,4800,46,5040,26.8C5280,8,5520,15,5760,38.3C6000,61,6240,100,6480,111.2C6720,123,6960,107,7200,95.8C7440,84,7680,77,7920,80.5C8160,84,8400,100,8640,95.8C8880,92,9120,69,9360,49.8C9600,31,9840,15,10080,38.3C10320,61,10560,123,10800,134.2C11040,146,11280,107,11520,103.5C11760,100,12000,130,12240,145.7C12480,161,12720,161,12960,164.8C13200,169,13440,176,13680,161C13920,146,14160,107,14400,88.2C14640,69,14880,69,15120,61.3C15360,54,15600,38,15840,30.7C16080,23,16320,23,16560,46C16800,69,17040,115,17160,138L17280,161L17280,230L17160,230C17040,230,16800,230,16560,230C16320,230,16080,230,15840,230C15600,230,15360,230,15120,230C14880,230,14640,230,14400,230C14160,230,13920,230,13680,230C13440,230,13200,230,12960,230C12720,230,12480,230,12240,230C12000,230,11760,230,11520,230C11280,230,11040,230,10800,230C10560,230,10320,230,10080,230C9840,230,9600,230,9360,230C9120,230,8880,230,8640,230C8400,230,8160,230,7920,230C7680,230,7440,230,7200,230C6960,230,6720,230,6480,230C6240,230,6000,230,5760,230C5520,230,5280,230,5040,230C4800,230,4560,230,4320,230C4080,230,3840,230,3600,230C3360,230,3120,230,2880,230C2640,230,2400,230,2160,230C1920,230,1680,230,1440,230C1200,230,960,230,720,230C480,230,240,230,120,230L0,230Z"></path></svg>