<svg id="wave" style="transform:rotate(0deg); transition: 0.3s" viewBox="0 0 1440 420" version="1.1" xmlns="http://www.w3.org/2000/svg"><defs><linearGradient id="sw-gradient-0" x1="0" x2="0" y1="1" y2="0"><stop stop-color="rgba(130, 55, 216, 1)" offset="0%"></stop><stop stop-color="rgba(218, 61, 144, 1)" offset="100%"></stop></linearGradient></defs><path style="transform:translate(0, 0px); opacity:1" fill="url(#sw-gradient-0)" d="M0,84L80,119C160,154,320,224,480,210C640,196,800,98,960,98C1120,98,1280,196,1440,196C1600,196,1760,98,1920,112C2080,126,2240,252,2400,294C2560,336,2720,294,2880,231C3040,168,3200,84,3360,49C3520,14,3680,28,3840,70C4000,112,4160,182,4320,203C4480,224,4640,196,4800,175C4960,154,5120,140,5280,147C5440,154,5600,182,5760,175C5920,168,6080,126,6240,91C6400,56,6560,28,6720,70C6880,112,7040,224,7200,245C7360,266,7520,196,7680,189C7840,182,8000,238,8160,266C8320,294,8480,294,8640,301C8800,308,8960,322,9120,294C9280,266,9440,196,9600,161C9760,126,9920,126,10080,112C10240,98,10400,70,10560,56C10720,42,10880,42,11040,84C11200,126,11360,210,11440,252L11520,294L11520,420L11440,420C11360,420,11200,420,11040,420C10880,420,10720,420,10560,420C10400,420,10240,420,10080,420C9920,420,9760,420,9600,420C9440,420,9280,420,9120,420C8960,420,8800,420,8640,420C8480,420,8320,420,8160,420C8000,420,7840,420,7680,420C7520,420,7360,420,7200,420C7040,420,6880,420,6720,420C6560,420,6400,420,6240,420C6080,420,5920,420,5760,420C5600,420,5440,420,5280,420C5120,420,4960,420,4800,420C4640,420,4480,420,4320,420C4160,420,4000,420,3840,420C3680,420,3520,420,3360,420C3200,420,3040,420,2880,420C2720,420,2560,420,2400,420C2240,420,2080,420,1920,420C1760,420,1600,420,1440,420C1280,420,1120,420,960,420C800,420,640,420,480,420C320,420,160,420,80,420L0,420Z"></path></svg>